# xmcd CD database file
#
# Track frame offsets:
#	150
#	32122
#	67042
#	87517
#	106497
#	120805
#	139362
#	177300
#	221312
#	250037
#
# Disc length: 3870 seconds
#
# Revision: 0
# Processed by: cddbd v1.5PL3 Copyright (c) Steve Scherf et al.
# Submitted via: CDex 1.51
#
DISCID=8a0f1c0a
DTITLE=バッハ - バッハのアリア　ヴォーカル編
DYEAR=2000
DGENRE=Classical
TTITLE0=マタイ受難曲より「憐れんでください、我が神よ！」(アルト)
TTITLE1=カンタータ第198番より「このすぐれた女性はどれほど満足して」(アルト)
TTITLE2=カンタータ第124番より「冠を戴く女性たちの冠にして褒美のまと」(バス)
TTITLE3=カンタータ第208番より「羊は安らかに草を食み」(ソプラノ)
TTITLE4=カンタータ第147番より「主よ、人の望みの喜びよ」(合唱)
TTITLE5=カンタータ第147番より「備えてください、イエスよ、いまなお道を」(ソプラノ)
TTITLE6=カンタータ第106番より「神の時はいとよき時なり」(合唱-テノール-バス-ソプラノ)
TTITLE7=カンタータ第201番より「あこがれをもって、私はお前の柔らかい頬を抱く」(バス)
TTITLE8=カンタータ第210番より「ここでは休め、疲れた音たちよ」(ソプラノ)
TTITLE9=クリスマス・オラトリオより「眠れよ、わが愛しきもの」(アルト)
EXTD=YEAR: 2000
EXTT0=
EXTT1=
EXTT2=
EXTT3=
EXTT4=
EXTT5=
EXTT6=
EXTT7=
EXTT8=
EXTT9=
PLAYORDER=
